<svg width="254" height="105" viewBox="0 0 254 105" fill="none" xmlns="http://www.w3.org/2000/svg">
<g filter="url(#filter0_iiiii_342_61)">
<path d="M0 80.0705C0 89.7517 6.31195 105 26.86 105H85.8808C85.8808 105 85.8808 105 85.8808 104.986C98.1222 104.823 108 94.925 108 82.7046V21.4128C108 14.0806 100.677 0 79.6645 0L0 80.0705Z" fill="#D3D3D3"/>
</g>
<g filter="url(#filter1_iiiii_342_61)">
<path d="M0 23.4503C0 10.4991 10.499 0 23.4503 0L79.43 0C92.3812 0 102.88 10.499 102.88 23.4503V79.43C102.88 92.3812 92.3813 102.88 79.43 102.88H23.4503C10.4991 102.88 0 92.3813 0 79.43L0 23.4503Z" fill="#E2E2E2"/>
</g>
<path fill-rule="evenodd" clip-rule="evenodd" d="M60.6897 102.631H59.9114C60.0641 99.9733 60.2422 97.3134 60.4465 94.6535C60.6284 91.0548 60.677 87.4551 60.5924 83.8545C59.9289 84.5666 59.2479 85.2642 58.5493 85.9462C57.4626 86.7741 56.3282 87.5203 55.1442 88.1838C51.4978 89.6792 48.3029 89.0468 45.5613 86.2867C45.4669 86.1145 45.3861 85.9355 45.318 85.7516C45.3521 85.629 45.4173 85.5969 45.5126 85.6543C48.5354 88.5224 51.9084 89.0088 55.6307 87.1137C57.1454 86.2809 58.4589 85.1951 59.5709 83.8545C60.1137 83.191 60.6323 82.5099 61.1275 81.8114C62.3942 79.4697 63.335 77.0044 63.9489 74.4174C65.2136 68.5208 65.7808 62.5531 65.6514 56.5163C65.2905 57.4464 64.8206 58.322 64.2407 59.1431C61.5429 62.446 58.381 65.2188 54.7551 67.4613C56.3915 69.0568 58.273 70.2574 60.3978 71.061C60.032 71.0756 59.675 71.0104 59.3276 70.8664C58.5279 70.5531 57.7496 70.1961 56.9927 69.7962C56.0432 69.1551 55.1355 68.4575 54.2686 67.7045C54.1314 67.832 53.969 67.9127 53.7822 67.9477C53.5137 68.4585 53.0924 68.7338 52.5174 68.7747C52.8754 69.913 52.9893 71.0804 52.8579 72.2771C52.4697 75.9887 50.9287 79.1184 48.2367 81.6655C47.6462 81.9272 47.1276 82.2842 46.6801 82.7356C44.0883 84.0928 41.3963 84.3195 38.6051 83.4167C37.569 82.9633 36.6282 82.364 35.7837 81.6168C35.7088 84.1454 35.7253 86.6749 35.8324 89.2054C36.0483 93.6807 36.2595 98.1559 36.4647 102.631H35.7837C35.5463 97.5411 35.3187 92.4499 35.1027 87.3569C35.0219 85.1844 34.9733 83.012 34.9568 80.8385C34.0286 79.8073 33.3145 78.6398 32.8164 77.3361C32.1548 75.5178 31.8951 73.6372 32.0381 71.6934C32.8145 67.7746 34.1113 64.0455 35.9296 60.5051C36.9677 57.0485 37.7626 53.546 38.3132 49.9979C38.6304 49.0464 38.8736 48.0735 39.0429 47.0793C39.04 45.8388 38.9427 44.6071 38.751 43.3823C38.5243 38.9264 38.4115 34.4667 38.4105 30.005C38.3765 27.2605 38.4572 24.5199 38.6537 21.7841C38.8454 19.8792 39.397 18.0959 40.3077 16.4332C41.8779 14.4709 43.4014 14.503 44.8802 16.5305C45.1702 17.3049 45.462 18.0833 45.7558 18.8655C46.3619 21.4932 46.8815 24.1531 47.3125 26.8431C47.6364 25.6747 47.9614 24.5072 48.2853 23.3407C48.406 23.0576 48.5685 22.7979 48.7718 22.5624C49.1035 21.2938 49.4606 20.029 49.842 18.7682C50.2156 18.1659 50.4753 17.517 50.6203 16.8224C51.132 15.9439 51.5854 15.0362 51.9823 14.0983C52.6293 12.9318 53.4884 11.9424 54.5605 11.131C55.4906 10.9062 56.3983 10.9705 57.2846 11.3256C58.8626 12.7839 59.4784 14.6003 59.1331 16.7737C58.9103 20.8229 58.5377 24.8604 58.0142 28.8862C57.9928 29.0691 57.9286 29.2316 57.8197 29.3727C57.5336 31.8808 57.1776 34.3782 56.7495 36.8639C56.4226 37.9176 56.1949 38.9877 56.0685 40.0744C56.5821 38.2561 57.701 36.9427 59.4249 36.1342C59.8793 36.0691 60.3326 36.0691 60.787 36.1342C62.1967 36.6363 63.154 37.5926 63.657 39.0043C64.0316 41.3052 63.9508 43.5914 63.4138 45.8631C63.4459 45.9439 63.479 46.0256 63.5111 46.1064C64.1133 45.1636 64.8916 44.4019 65.846 43.8201C66.67 43.5302 67.5126 43.4971 68.3755 43.7228C69.9837 44.6509 70.8272 46.0451 70.905 47.9062C70.7717 49.1953 70.3982 50.4114 69.7862 51.5545C68.7948 53.0333 67.6925 54.4275 66.4784 55.738C66.4891 62.413 65.776 68.9965 64.338 75.4876C63.6366 78.0463 62.6316 80.4785 61.3221 82.7843C61.4135 89.4106 61.2024 96.0263 60.6897 102.631Z" fill="#F0F0EF"/>
<path fill-rule="evenodd" clip-rule="evenodd" d="M42.0095 15.8499C43.0271 15.6777 43.7899 16.0347 44.2958 16.9201C44.9739 18.6139 45.4438 20.3651 45.7064 22.1737C46.1034 24.2391 46.4439 26.3143 46.728 28.4002C46.8866 28.7095 47.0169 29.0335 47.1171 29.3731C47.4285 33.3502 48.0453 37.2739 48.9656 41.145C49.3266 42.3203 49.8451 43.4226 50.5223 44.4528C50.9922 44.7934 51.463 45.1339 51.9329 45.4744C53.009 45.6884 53.9001 45.381 54.6084 44.5501C54.6249 44.5988 54.6405 44.6474 54.657 44.6961C53.868 47.1448 53.4944 49.6588 53.5382 52.236C53.7415 52.9987 53.9517 53.7605 54.1706 54.5223C53.8165 54.9085 53.4273 55.2646 53.0031 55.5924C52.3221 55.9981 51.6411 56.4028 50.9601 56.8085C50.2323 55.643 49.2925 54.6867 48.1387 53.9385C47.7904 53.8617 47.4664 53.7323 47.1658 53.5494C46.2328 53.3081 45.3251 53.3723 44.4417 53.7439C45.2171 53.6963 45.9954 53.6963 46.7766 53.7439C47.9003 54.1273 48.8401 54.7762 49.598 55.6897C49.7313 55.7286 49.8607 55.7773 49.9872 55.8357C50.2294 56.1908 50.4892 56.5313 50.7655 56.8572C50.6011 57.0537 50.4065 57.2162 50.1817 57.3436C49.492 57.7143 48.8109 58.1035 48.1387 58.5111C46.9829 58.9567 45.7823 59.2155 44.539 59.2894C42.6594 59.8401 40.9733 60.7478 39.48 62.0135C39.6171 62.0446 39.7465 62.0116 39.8691 61.9162C40.4275 61.5212 41.0113 61.1642 41.6203 60.846C42.3023 60.6622 42.9503 60.4024 43.5661 60.0677C44.429 59.8741 45.3046 59.7768 46.1929 59.7759C47.1492 59.4636 48.09 59.1065 49.0143 58.7057C52.0331 56.9837 54.9518 55.1031 57.7703 53.0629C58.9037 52.45 60.0381 51.8342 61.1754 51.2144C62.8118 50.906 63.9637 51.5053 64.6292 53.0143C64.7887 54.0397 64.5455 54.9474 63.8995 55.7384C63.4753 56.145 62.9889 56.4525 62.4402 56.6626C61.5344 56.8338 60.6267 56.9953 59.7161 57.1491C58.1731 57.2882 56.6816 57.078 55.2408 56.5167C54.9635 56.5215 54.8497 56.6509 54.9003 56.9058C55.6611 57.3427 56.4559 57.7162 57.2838 58.0247C58.786 58.2387 60.2774 58.1735 61.7591 57.8301C62.6493 57.4331 63.5249 57.0119 64.3859 56.5653C64.777 56.435 65.1662 56.3377 65.5534 56.2735C65.0105 56.5984 64.67 57.0683 64.5319 57.6841C62.301 60.7906 59.5925 63.4018 56.4082 65.5159C53.8135 67.377 51.1216 69.0952 48.3333 70.6722C47.9937 70.9553 47.6367 71.2151 47.2631 71.4505C46.3495 71.794 45.4739 72.2152 44.6363 72.7153C44.9515 72.655 45.2755 72.5898 45.6092 72.5207C46.5237 72.2376 47.3993 71.8815 48.236 71.4505C49.5114 70.6965 50.7927 69.9348 52.0789 69.1642C52.1713 69.2041 52.2355 69.2683 52.2735 69.3588C52.3795 71.8115 51.9903 74.1785 51.106 76.4609C49.6447 80.1287 47.0023 82.3829 43.1769 83.2225C39.0957 83.5825 36.0641 81.9772 34.0804 78.4067C32.9003 75.9881 32.5111 73.4265 32.9129 70.7209C33.6601 67.3751 34.8276 64.1967 36.4154 61.1865C36.9329 59.5715 37.4194 57.9507 37.8747 56.3221C38.3174 53.8908 38.7717 51.4586 39.2367 49.0254C39.3019 48.896 39.3661 48.896 39.4313 49.0254C39.7913 51.5034 40.699 53.741 42.1554 55.7384C42.6759 56.2754 43.211 56.794 43.7607 57.295C44.2656 57.5197 44.7841 57.7299 45.3173 57.9274C45.4798 57.9926 45.6413 57.9926 45.8037 57.9274C45.2132 57.7133 44.6625 57.4215 44.1498 57.0518C43.6196 56.5215 43.0845 55.9865 42.5446 55.4465C41.1076 53.1145 40.232 50.584 39.9178 47.858C39.0665 39.3773 38.8719 30.8801 39.334 22.3683C39.4157 20.4293 39.9022 18.6139 40.7934 16.9201C41.1339 16.4832 41.5396 16.1272 42.0095 15.8499Z" fill="#323232"/>
<path fill-rule="evenodd" clip-rule="evenodd" d="M55.1435 11.6653C56.5202 11.5018 57.4765 12.0535 58.0136 13.3192C58.1264 13.6714 58.2237 14.0284 58.3054 14.3894C58.3706 16.1085 58.3706 17.8266 58.3054 19.5457C57.5544 27.7569 56.3217 35.897 54.6084 43.9652C54.3068 44.1403 54.0305 44.3514 53.7815 44.5976C53.0236 45.0461 52.2774 45.013 51.5438 44.5003C51.2354 44.1228 50.8949 43.7823 50.5223 43.4788C50.1127 42.2821 49.7236 41.0825 49.3548 39.8791C48.7166 36.6248 48.2302 33.349 47.8955 30.0529C47.8303 29.2094 47.8303 28.3669 47.8955 27.5234C48.6398 25.1291 49.3529 22.729 50.0359 20.324C50.6274 18.7858 51.2432 17.2613 51.8843 15.7514C52.3844 14.87 52.903 13.9944 53.441 13.1246C53.9391 12.5448 54.5063 12.0583 55.1435 11.6653Z" fill="#323232"/>
<path fill-rule="evenodd" clip-rule="evenodd" d="M59.815 36.7656C60.1409 36.7491 60.4649 36.7656 60.7879 36.8142C62.0926 37.3892 62.8709 38.3787 63.1229 39.7816C63.2892 42.3938 63.1433 44.9885 62.6851 47.5647C62.3854 48.5278 62.1422 49.5007 61.9554 50.4833C61.2413 50.5446 60.5603 50.7236 59.9123 51.0184C58.2428 51.9446 56.6531 52.9817 55.1452 54.1317C55.0197 54.1794 54.8893 54.1959 54.756 54.1803C54.1752 52.7716 54.0293 51.3122 54.3182 49.8023C54.8465 46.5315 55.5927 43.3209 56.5558 40.1707C57.2067 38.5956 58.2934 37.4612 59.815 36.7656Z" fill="#323232"/>
<path fill-rule="evenodd" clip-rule="evenodd" d="M66.2354 54.9593C65.9757 55.0897 65.749 55.2677 65.5544 55.4944C65.463 55.5615 65.3988 55.546 65.3598 55.4458C65.4707 54.5779 65.4863 53.7023 65.4085 52.819C64.9434 51.5591 64.0513 50.8129 62.733 50.5813C62.7418 50.0832 62.8235 49.5967 62.9763 49.122C63.1699 48.5431 63.3644 47.9594 63.56 47.3708C63.8742 46.9145 64.134 46.428 64.3383 45.9114C64.8646 45.1536 65.5622 44.6185 66.43 44.3062C67.7181 44.1135 68.7562 44.5183 69.5433 45.5223C70.3118 46.825 70.4257 48.187 69.8838 49.6084C68.9566 51.5951 67.7405 53.3784 66.2354 54.9593Z" fill="#323232"/>
<path fill-rule="evenodd" clip-rule="evenodd" d="M59.9114 102.631H36.4647C36.2595 98.1559 36.0483 93.6807 35.8324 89.2054C35.7253 86.6749 35.7088 84.1454 35.7837 81.6168C36.6282 82.364 37.569 82.9633 38.6051 83.4167C41.3963 84.3195 44.0883 84.0928 46.6801 82.7356C47.1276 82.2842 47.6462 81.9272 48.2367 81.6655C50.9287 79.1184 52.4697 75.9887 52.8579 72.2771C52.9893 71.0804 52.8754 69.913 52.5174 68.7747C53.0924 68.7338 53.5137 68.4585 53.7822 67.9477C53.969 67.9127 54.1314 67.832 54.2686 67.7045C55.1355 68.4575 56.0432 69.1551 56.9927 69.7962C57.7496 70.1961 58.5279 70.5531 59.3276 70.8664C59.675 71.0104 60.032 71.0756 60.3978 71.061C58.273 70.2574 56.3915 69.0568 54.7551 67.4613C58.381 65.2188 61.5429 62.446 64.2407 59.1431C64.8206 58.322 65.2905 57.4464 65.6514 56.5163C65.7808 62.5531 65.2136 68.5208 63.9489 74.4174C63.335 77.0044 62.3942 79.4697 61.1275 81.8114C60.6323 82.5099 60.1137 83.191 59.5709 83.8545C58.4589 85.1951 57.1454 86.2809 55.6307 87.1137C51.9084 89.0088 48.5354 88.5224 45.5126 85.6543C45.4173 85.5969 45.3521 85.629 45.318 85.7516C45.3861 85.9355 45.4669 86.1145 45.5613 86.2867C48.3029 89.0468 51.4978 89.6792 55.1442 88.1838C56.3282 87.5203 57.4626 86.7741 58.5493 85.9462C59.2479 85.2642 59.9289 84.5666 60.5924 83.8545C60.677 87.4551 60.6284 91.0548 60.4465 94.6535C60.2422 97.3134 60.0641 99.9733 59.9114 102.631Z" fill="#323232"/>
<g filter="url(#filter2_iiiii_342_61)">
<path d="M241.745 69.3358C239.185 69.3358 236.913 68.9198 234.929 68.0878C232.977 67.2558 231.425 66.1038 230.273 64.6318C229.121 63.1598 228.465 61.4958 228.305 59.6398H238.529C238.657 60.4398 238.993 61.0318 239.537 61.4158C240.113 61.7998 240.833 61.9918 241.697 61.9918C242.241 61.9918 242.673 61.8798 242.993 61.6558C243.313 61.3998 243.473 61.0958 243.473 60.7438C243.473 60.1358 243.137 59.7038 242.465 59.4478C241.793 59.1918 240.657 58.9038 239.057 58.5838C237.105 58.1998 235.489 57.7838 234.209 57.3358C232.961 56.8878 231.857 56.1198 230.897 55.0318C229.969 53.9438 229.505 52.4398 229.505 50.5198C229.505 48.8558 229.937 47.3518 230.801 46.0078C231.697 44.6318 233.009 43.5598 234.737 42.7918C236.465 41.9918 238.561 41.5918 241.025 41.5918C244.673 41.5918 247.521 42.4878 249.569 44.2798C251.649 46.0718 252.897 48.4078 253.313 51.2878H243.857C243.697 50.5518 243.361 49.9918 242.849 49.6078C242.337 49.1918 241.649 48.9838 240.785 48.9838C240.241 48.9838 239.825 49.0958 239.537 49.3198C239.249 49.5118 239.105 49.8158 239.105 50.2318C239.105 50.7758 239.441 51.1918 240.113 51.4798C240.785 51.7358 241.857 52.0078 243.329 52.2958C245.281 52.6798 246.929 53.1118 248.273 53.5918C249.617 54.0718 250.785 54.9038 251.777 56.0878C252.769 57.2398 253.265 58.8398 253.265 60.8878C253.265 62.4878 252.801 63.9278 251.873 65.2078C250.945 66.4878 249.601 67.4958 247.841 68.2318C246.113 68.9678 244.081 69.3358 241.745 69.3358Z" fill="#323232"/>
</g>
<g filter="url(#filter3_iiiii_342_61)">
<path d="M224.883 33.4805V69.0005H214.227V33.4805H224.883Z" fill="#323232"/>
</g>
<g filter="url(#filter4_iiiii_342_61)">
<path d="M198.479 69.3358C195.919 69.3358 193.647 68.9198 191.663 68.0878C189.711 67.2558 188.159 66.1038 187.007 64.6318C185.855 63.1598 185.199 61.4958 185.039 59.6398H195.263C195.391 60.4398 195.727 61.0318 196.271 61.4158C196.847 61.7998 197.567 61.9918 198.431 61.9918C198.975 61.9918 199.407 61.8798 199.727 61.6558C200.047 61.3998 200.207 61.0958 200.207 60.7438C200.207 60.1358 199.871 59.7038 199.199 59.4478C198.527 59.1918 197.391 58.9038 195.791 58.5838C193.839 58.1998 192.223 57.7838 190.943 57.3358C189.695 56.8878 188.591 56.1198 187.631 55.0318C186.703 53.9438 186.239 52.4398 186.239 50.5198C186.239 48.8558 186.671 47.3518 187.535 46.0078C188.431 44.6318 189.743 43.5598 191.471 42.7918C193.199 41.9918 195.295 41.5918 197.759 41.5918C201.407 41.5918 204.255 42.4878 206.303 44.2798C208.383 46.0718 209.631 48.4078 210.047 51.2878H200.591C200.431 50.5518 200.095 49.9918 199.583 49.6078C199.071 49.1918 198.383 48.9838 197.519 48.9838C196.975 48.9838 196.559 49.0958 196.271 49.3198C195.983 49.5118 195.839 49.8158 195.839 50.2318C195.839 50.7758 196.175 51.1918 196.847 51.4798C197.519 51.7358 198.591 52.0078 200.063 52.2958C202.015 52.6798 203.663 53.1118 205.007 53.5918C206.351 54.0718 207.519 54.9038 208.511 56.0878C209.503 57.2398 209.999 58.8398 209.999 60.8878C209.999 62.4878 209.535 63.9278 208.607 65.2078C207.679 66.4878 206.335 67.4958 204.575 68.2318C202.847 68.9678 200.815 69.3358 198.479 69.3358Z" fill="#323232"/>
</g>
<g filter="url(#filter5_iiiii_342_61)">
<path d="M164.461 45.6238C165.133 44.3758 166.093 43.3998 167.341 42.6958C168.621 41.9598 170.141 41.5918 171.901 41.5918C174.013 41.5918 175.917 42.1518 177.613 43.2718C179.309 44.3598 180.637 45.9598 181.597 48.0718C182.589 50.1518 183.085 52.6158 183.085 55.4638C183.085 58.3118 182.589 60.7918 181.597 62.9038C180.637 64.9838 179.309 66.5838 177.613 67.7038C175.917 68.7918 174.013 69.3358 171.901 69.3358C170.141 69.3358 168.621 68.9838 167.341 68.2798C166.093 67.5438 165.133 66.5518 164.461 65.3038V81.9598H153.805V41.9278H164.461V45.6238ZM172.285 55.4638C172.285 54.0238 171.917 52.9038 171.181 52.1038C170.445 51.3038 169.501 50.9038 168.349 50.9038C167.197 50.9038 166.253 51.3038 165.517 52.1038C164.781 52.9038 164.413 54.0238 164.413 55.4638C164.413 56.9038 164.781 58.0238 165.517 58.8238C166.253 59.6238 167.197 60.0238 168.349 60.0238C169.501 60.0238 170.445 59.6238 171.181 58.8238C171.917 58.0238 172.285 56.9038 172.285 55.4638Z" fill="#323232"/>
</g>
<g filter="url(#filter6_iiiii_342_61)">
<path d="M142.054 46.9203C143.142 45.3523 144.47 44.1043 146.038 43.1763C147.606 42.2163 149.238 41.7363 150.934 41.7363V53.1123H147.91C145.894 53.1123 144.406 53.4643 143.446 54.1683C142.518 54.8723 142.054 56.1203 142.054 57.9123V69.0003H131.398V41.9283H142.054V46.9203Z" fill="#323232"/>
</g>
<defs>
<filter id="filter0_iiiii_342_61" x="0" y="-31" width="108" height="176" filterUnits="userSpaceOnUse" color-interpolation-filters="sRGB">
<feFlood flood-opacity="0" result="BackgroundImageFix"/>
<feBlend mode="normal" in="SourceGraphic" in2="BackgroundImageFix" result="shape"/>
<feColorMatrix in="SourceAlpha" type="matrix" values="0 0 0 0 0 0 0 0 0 0 0 0 0 0 0 0 0 0 127 0" result="hardAlpha"/>
<feOffset dy="54"/>
<feGaussianBlur stdDeviation="20"/>
<feComposite in2="hardAlpha" operator="arithmetic" k2="-1" k3="1"/>
<feColorMatrix type="matrix" values="0 0 0 0 1 0 0 0 0 1 0 0 0 0 1 0 0 0 0.5 0"/>
<feBlend mode="overlay" in2="shape" result="effect1_innerShadow_342_61"/>
<feColorMatrix in="SourceAlpha" type="matrix" values="0 0 0 0 0 0 0 0 0 0 0 0 0 0 0 0 0 0 127 0" result="hardAlpha"/>
<feOffset dy="-30"/>
<feGaussianBlur stdDeviation="30"/>
<feComposite in2="hardAlpha" operator="arithmetic" k2="-1" k3="1"/>
<feColorMatrix type="matrix" values="0 0 0 0 0 0 0 0 0 0 0 0 0 0 0 0 0 0 0.5 0"/>
<feBlend mode="overlay" in2="effect1_innerShadow_342_61" result="effect2_innerShadow_342_61"/>
<feColorMatrix in="SourceAlpha" type="matrix" values="0 0 0 0 0 0 0 0 0 0 0 0 0 0 0 0 0 0 127 0" result="hardAlpha"/>
<feOffset dy="5"/>
<feGaussianBlur stdDeviation="5"/>
<feComposite in2="hardAlpha" operator="arithmetic" k2="-1" k3="1"/>
<feColorMatrix type="matrix" values="0 0 0 0 1 0 0 0 0 1 0 0 0 0 1 0 0 0 0.5 0"/>
<feBlend mode="overlay" in2="effect2_innerShadow_342_61" result="effect3_innerShadow_342_61"/>
<feColorMatrix in="SourceAlpha" type="matrix" values="0 0 0 0 0 0 0 0 0 0 0 0 0 0 0 0 0 0 127 0" result="hardAlpha"/>
<feOffset dy="-134"/>
<feGaussianBlur stdDeviation="15.5"/>
<feComposite in2="hardAlpha" operator="arithmetic" k2="-1" k3="1"/>
<feColorMatrix type="matrix" values="0 0 0 0 0 0 0 0 0 0 0 0 0 0 0 0 0 0 0.15 0"/>
<feBlend mode="overlay" in2="effect3_innerShadow_342_61" result="effect4_innerShadow_342_61"/>
<feColorMatrix in="SourceAlpha" type="matrix" values="0 0 0 0 0 0 0 0 0 0 0 0 0 0 0 0 0 0 127 0" result="hardAlpha"/>
<feOffset dy="20"/>
<feGaussianBlur stdDeviation="10"/>
<feComposite in2="hardAlpha" operator="arithmetic" k2="-1" k3="1"/>
<feColorMatrix type="matrix" values="0 0 0 0 1 0 0 0 0 1 0 0 0 0 1 0 0 0 0.25 0"/>
<feBlend mode="overlay" in2="effect4_innerShadow_342_61" result="effect5_innerShadow_342_61"/>
</filter>
<filter id="filter1_iiiii_342_61" x="0" y="-30" width="102.879" height="172.881" filterUnits="userSpaceOnUse" color-interpolation-filters="sRGB">
<feFlood flood-opacity="0" result="BackgroundImageFix"/>
<feBlend mode="normal" in="SourceGraphic" in2="BackgroundImageFix" result="shape"/>
<feColorMatrix in="SourceAlpha" type="matrix" values="0 0 0 0 0 0 0 0 0 0 0 0 0 0 0 0 0 0 127 0" result="hardAlpha"/>
<feOffset dy="54"/>
<feGaussianBlur stdDeviation="20"/>
<feComposite in2="hardAlpha" operator="arithmetic" k2="-1" k3="1"/>
<feColorMatrix type="matrix" values="0 0 0 0 1 0 0 0 0 1 0 0 0 0 1 0 0 0 0.5 0"/>
<feBlend mode="overlay" in2="shape" result="effect1_innerShadow_342_61"/>
<feColorMatrix in="SourceAlpha" type="matrix" values="0 0 0 0 0 0 0 0 0 0 0 0 0 0 0 0 0 0 127 0" result="hardAlpha"/>
<feOffset dy="-30"/>
<feGaussianBlur stdDeviation="30"/>
<feComposite in2="hardAlpha" operator="arithmetic" k2="-1" k3="1"/>
<feColorMatrix type="matrix" values="0 0 0 0 0 0 0 0 0 0 0 0 0 0 0 0 0 0 0.5 0"/>
<feBlend mode="overlay" in2="effect1_innerShadow_342_61" result="effect2_innerShadow_342_61"/>
<feColorMatrix in="SourceAlpha" type="matrix" values="0 0 0 0 0 0 0 0 0 0 0 0 0 0 0 0 0 0 127 0" result="hardAlpha"/>
<feOffset dy="5"/>
<feGaussianBlur stdDeviation="5"/>
<feComposite in2="hardAlpha" operator="arithmetic" k2="-1" k3="1"/>
<feColorMatrix type="matrix" values="0 0 0 0 1 0 0 0 0 1 0 0 0 0 1 0 0 0 0.5 0"/>
<feBlend mode="overlay" in2="effect2_innerShadow_342_61" result="effect3_innerShadow_342_61"/>
<feColorMatrix in="SourceAlpha" type="matrix" values="0 0 0 0 0 0 0 0 0 0 0 0 0 0 0 0 0 0 127 0" result="hardAlpha"/>
<feOffset dy="-134"/>
<feGaussianBlur stdDeviation="15.5"/>
<feComposite in2="hardAlpha" operator="arithmetic" k2="-1" k3="1"/>
<feColorMatrix type="matrix" values="0 0 0 0 0 0 0 0 0 0 0 0 0 0 0 0 0 0 0.15 0"/>
<feBlend mode="overlay" in2="effect3_innerShadow_342_61" result="effect4_innerShadow_342_61"/>
<feColorMatrix in="SourceAlpha" type="matrix" values="0 0 0 0 0 0 0 0 0 0 0 0 0 0 0 0 0 0 127 0" result="hardAlpha"/>
<feOffset dy="20"/>
<feGaussianBlur stdDeviation="10"/>
<feComposite in2="hardAlpha" operator="arithmetic" k2="-1" k3="1"/>
<feColorMatrix type="matrix" values="0 0 0 0 1 0 0 0 0 1 0 0 0 0 1 0 0 0 0.25 0"/>
<feBlend mode="overlay" in2="effect4_innerShadow_342_61" result="effect5_innerShadow_342_61"/>
</filter>
<filter id="filter2_iiiii_342_61" x="228.305" y="11.5918" width="25.0078" height="97.7441" filterUnits="userSpaceOnUse" color-interpolation-filters="sRGB">
<feFlood flood-opacity="0" result="BackgroundImageFix"/>
<feBlend mode="normal" in="SourceGraphic" in2="BackgroundImageFix" result="shape"/>
<feColorMatrix in="SourceAlpha" type="matrix" values="0 0 0 0 0 0 0 0 0 0 0 0 0 0 0 0 0 0 127 0" result="hardAlpha"/>
<feOffset dy="54"/>
<feGaussianBlur stdDeviation="20"/>
<feComposite in2="hardAlpha" operator="arithmetic" k2="-1" k3="1"/>
<feColorMatrix type="matrix" values="0 0 0 0 1 0 0 0 0 1 0 0 0 0 1 0 0 0 0.5 0"/>
<feBlend mode="overlay" in2="shape" result="effect1_innerShadow_342_61"/>
<feColorMatrix in="SourceAlpha" type="matrix" values="0 0 0 0 0 0 0 0 0 0 0 0 0 0 0 0 0 0 127 0" result="hardAlpha"/>
<feOffset dy="-30"/>
<feGaussianBlur stdDeviation="30"/>
<feComposite in2="hardAlpha" operator="arithmetic" k2="-1" k3="1"/>
<feColorMatrix type="matrix" values="0 0 0 0 0 0 0 0 0 0 0 0 0 0 0 0 0 0 0.5 0"/>
<feBlend mode="overlay" in2="effect1_innerShadow_342_61" result="effect2_innerShadow_342_61"/>
<feColorMatrix in="SourceAlpha" type="matrix" values="0 0 0 0 0 0 0 0 0 0 0 0 0 0 0 0 0 0 127 0" result="hardAlpha"/>
<feOffset dy="5"/>
<feGaussianBlur stdDeviation="5"/>
<feComposite in2="hardAlpha" operator="arithmetic" k2="-1" k3="1"/>
<feColorMatrix type="matrix" values="0 0 0 0 1 0 0 0 0 1 0 0 0 0 1 0 0 0 0.5 0"/>
<feBlend mode="overlay" in2="effect2_innerShadow_342_61" result="effect3_innerShadow_342_61"/>
<feColorMatrix in="SourceAlpha" type="matrix" values="0 0 0 0 0 0 0 0 0 0 0 0 0 0 0 0 0 0 127 0" result="hardAlpha"/>
<feOffset dy="-134"/>
<feGaussianBlur stdDeviation="15.5"/>
<feComposite in2="hardAlpha" operator="arithmetic" k2="-1" k3="1"/>
<feColorMatrix type="matrix" values="0 0 0 0 0 0 0 0 0 0 0 0 0 0 0 0 0 0 0.15 0"/>
<feBlend mode="overlay" in2="effect3_innerShadow_342_61" result="effect4_innerShadow_342_61"/>
<feColorMatrix in="SourceAlpha" type="matrix" values="0 0 0 0 0 0 0 0 0 0 0 0 0 0 0 0 0 0 127 0" result="hardAlpha"/>
<feOffset dy="20"/>
<feGaussianBlur stdDeviation="10"/>
<feComposite in2="hardAlpha" operator="arithmetic" k2="-1" k3="1"/>
<feColorMatrix type="matrix" values="0 0 0 0 1 0 0 0 0 1 0 0 0 0 1 0 0 0 0.25 0"/>
<feBlend mode="overlay" in2="effect4_innerShadow_342_61" result="effect5_innerShadow_342_61"/>
</filter>
<filter id="filter3_iiiii_342_61" x="214.227" y="3.48047" width="10.6562" height="105.52" filterUnits="userSpaceOnUse" color-interpolation-filters="sRGB">
<feFlood flood-opacity="0" result="BackgroundImageFix"/>
<feBlend mode="normal" in="SourceGraphic" in2="BackgroundImageFix" result="shape"/>
<feColorMatrix in="SourceAlpha" type="matrix" values="0 0 0 0 0 0 0 0 0 0 0 0 0 0 0 0 0 0 127 0" result="hardAlpha"/>
<feOffset dy="54"/>
<feGaussianBlur stdDeviation="20"/>
<feComposite in2="hardAlpha" operator="arithmetic" k2="-1" k3="1"/>
<feColorMatrix type="matrix" values="0 0 0 0 1 0 0 0 0 1 0 0 0 0 1 0 0 0 0.5 0"/>
<feBlend mode="overlay" in2="shape" result="effect1_innerShadow_342_61"/>
<feColorMatrix in="SourceAlpha" type="matrix" values="0 0 0 0 0 0 0 0 0 0 0 0 0 0 0 0 0 0 127 0" result="hardAlpha"/>
<feOffset dy="-30"/>
<feGaussianBlur stdDeviation="30"/>
<feComposite in2="hardAlpha" operator="arithmetic" k2="-1" k3="1"/>
<feColorMatrix type="matrix" values="0 0 0 0 0 0 0 0 0 0 0 0 0 0 0 0 0 0 0.5 0"/>
<feBlend mode="overlay" in2="effect1_innerShadow_342_61" result="effect2_innerShadow_342_61"/>
<feColorMatrix in="SourceAlpha" type="matrix" values="0 0 0 0 0 0 0 0 0 0 0 0 0 0 0 0 0 0 127 0" result="hardAlpha"/>
<feOffset dy="5"/>
<feGaussianBlur stdDeviation="5"/>
<feComposite in2="hardAlpha" operator="arithmetic" k2="-1" k3="1"/>
<feColorMatrix type="matrix" values="0 0 0 0 1 0 0 0 0 1 0 0 0 0 1 0 0 0 0.5 0"/>
<feBlend mode="overlay" in2="effect2_innerShadow_342_61" result="effect3_innerShadow_342_61"/>
<feColorMatrix in="SourceAlpha" type="matrix" values="0 0 0 0 0 0 0 0 0 0 0 0 0 0 0 0 0 0 127 0" result="hardAlpha"/>
<feOffset dy="-134"/>
<feGaussianBlur stdDeviation="15.5"/>
<feComposite in2="hardAlpha" operator="arithmetic" k2="-1" k3="1"/>
<feColorMatrix type="matrix" values="0 0 0 0 0 0 0 0 0 0 0 0 0 0 0 0 0 0 0.15 0"/>
<feBlend mode="overlay" in2="effect3_innerShadow_342_61" result="effect4_innerShadow_342_61"/>
<feColorMatrix in="SourceAlpha" type="matrix" values="0 0 0 0 0 0 0 0 0 0 0 0 0 0 0 0 0 0 127 0" result="hardAlpha"/>
<feOffset dy="20"/>
<feGaussianBlur stdDeviation="10"/>
<feComposite in2="hardAlpha" operator="arithmetic" k2="-1" k3="1"/>
<feColorMatrix type="matrix" values="0 0 0 0 1 0 0 0 0 1 0 0 0 0 1 0 0 0 0.25 0"/>
<feBlend mode="overlay" in2="effect4_innerShadow_342_61" result="effect5_innerShadow_342_61"/>
</filter>
<filter id="filter4_iiiii_342_61" x="185.039" y="11.5918" width="25.0078" height="97.7441" filterUnits="userSpaceOnUse" color-interpolation-filters="sRGB">
<feFlood flood-opacity="0" result="BackgroundImageFix"/>
<feBlend mode="normal" in="SourceGraphic" in2="BackgroundImageFix" result="shape"/>
<feColorMatrix in="SourceAlpha" type="matrix" values="0 0 0 0 0 0 0 0 0 0 0 0 0 0 0 0 0 0 127 0" result="hardAlpha"/>
<feOffset dy="54"/>
<feGaussianBlur stdDeviation="20"/>
<feComposite in2="hardAlpha" operator="arithmetic" k2="-1" k3="1"/>
<feColorMatrix type="matrix" values="0 0 0 0 1 0 0 0 0 1 0 0 0 0 1 0 0 0 0.5 0"/>
<feBlend mode="overlay" in2="shape" result="effect1_innerShadow_342_61"/>
<feColorMatrix in="SourceAlpha" type="matrix" values="0 0 0 0 0 0 0 0 0 0 0 0 0 0 0 0 0 0 127 0" result="hardAlpha"/>
<feOffset dy="-30"/>
<feGaussianBlur stdDeviation="30"/>
<feComposite in2="hardAlpha" operator="arithmetic" k2="-1" k3="1"/>
<feColorMatrix type="matrix" values="0 0 0 0 0 0 0 0 0 0 0 0 0 0 0 0 0 0 0.5 0"/>
<feBlend mode="overlay" in2="effect1_innerShadow_342_61" result="effect2_innerShadow_342_61"/>
<feColorMatrix in="SourceAlpha" type="matrix" values="0 0 0 0 0 0 0 0 0 0 0 0 0 0 0 0 0 0 127 0" result="hardAlpha"/>
<feOffset dy="5"/>
<feGaussianBlur stdDeviation="5"/>
<feComposite in2="hardAlpha" operator="arithmetic" k2="-1" k3="1"/>
<feColorMatrix type="matrix" values="0 0 0 0 1 0 0 0 0 1 0 0 0 0 1 0 0 0 0.5 0"/>
<feBlend mode="overlay" in2="effect2_innerShadow_342_61" result="effect3_innerShadow_342_61"/>
<feColorMatrix in="SourceAlpha" type="matrix" values="0 0 0 0 0 0 0 0 0 0 0 0 0 0 0 0 0 0 127 0" result="hardAlpha"/>
<feOffset dy="-134"/>
<feGaussianBlur stdDeviation="15.5"/>
<feComposite in2="hardAlpha" operator="arithmetic" k2="-1" k3="1"/>
<feColorMatrix type="matrix" values="0 0 0 0 0 0 0 0 0 0 0 0 0 0 0 0 0 0 0.15 0"/>
<feBlend mode="overlay" in2="effect3_innerShadow_342_61" result="effect4_innerShadow_342_61"/>
<feColorMatrix in="SourceAlpha" type="matrix" values="0 0 0 0 0 0 0 0 0 0 0 0 0 0 0 0 0 0 127 0" result="hardAlpha"/>
<feOffset dy="20"/>
<feGaussianBlur stdDeviation="10"/>
<feComposite in2="hardAlpha" operator="arithmetic" k2="-1" k3="1"/>
<feColorMatrix type="matrix" values="0 0 0 0 1 0 0 0 0 1 0 0 0 0 1 0 0 0 0.25 0"/>
<feBlend mode="overlay" in2="effect4_innerShadow_342_61" result="effect5_innerShadow_342_61"/>
</filter>
<filter id="filter5_iiiii_342_61" x="153.805" y="11.5918" width="29.2812" height="110.367" filterUnits="userSpaceOnUse" color-interpolation-filters="sRGB">
<feFlood flood-opacity="0" result="BackgroundImageFix"/>
<feBlend mode="normal" in="SourceGraphic" in2="BackgroundImageFix" result="shape"/>
<feColorMatrix in="SourceAlpha" type="matrix" values="0 0 0 0 0 0 0 0 0 0 0 0 0 0 0 0 0 0 127 0" result="hardAlpha"/>
<feOffset dy="54"/>
<feGaussianBlur stdDeviation="20"/>
<feComposite in2="hardAlpha" operator="arithmetic" k2="-1" k3="1"/>
<feColorMatrix type="matrix" values="0 0 0 0 1 0 0 0 0 1 0 0 0 0 1 0 0 0 0.5 0"/>
<feBlend mode="overlay" in2="shape" result="effect1_innerShadow_342_61"/>
<feColorMatrix in="SourceAlpha" type="matrix" values="0 0 0 0 0 0 0 0 0 0 0 0 0 0 0 0 0 0 127 0" result="hardAlpha"/>
<feOffset dy="-30"/>
<feGaussianBlur stdDeviation="30"/>
<feComposite in2="hardAlpha" operator="arithmetic" k2="-1" k3="1"/>
<feColorMatrix type="matrix" values="0 0 0 0 0 0 0 0 0 0 0 0 0 0 0 0 0 0 0.5 0"/>
<feBlend mode="overlay" in2="effect1_innerShadow_342_61" result="effect2_innerShadow_342_61"/>
<feColorMatrix in="SourceAlpha" type="matrix" values="0 0 0 0 0 0 0 0 0 0 0 0 0 0 0 0 0 0 127 0" result="hardAlpha"/>
<feOffset dy="5"/>
<feGaussianBlur stdDeviation="5"/>
<feComposite in2="hardAlpha" operator="arithmetic" k2="-1" k3="1"/>
<feColorMatrix type="matrix" values="0 0 0 0 1 0 0 0 0 1 0 0 0 0 1 0 0 0 0.5 0"/>
<feBlend mode="overlay" in2="effect2_innerShadow_342_61" result="effect3_innerShadow_342_61"/>
<feColorMatrix in="SourceAlpha" type="matrix" values="0 0 0 0 0 0 0 0 0 0 0 0 0 0 0 0 0 0 127 0" result="hardAlpha"/>
<feOffset dy="-134"/>
<feGaussianBlur stdDeviation="15.5"/>
<feComposite in2="hardAlpha" operator="arithmetic" k2="-1" k3="1"/>
<feColorMatrix type="matrix" values="0 0 0 0 0 0 0 0 0 0 0 0 0 0 0 0 0 0 0.15 0"/>
<feBlend mode="overlay" in2="effect3_innerShadow_342_61" result="effect4_innerShadow_342_61"/>
<feColorMatrix in="SourceAlpha" type="matrix" values="0 0 0 0 0 0 0 0 0 0 0 0 0 0 0 0 0 0 127 0" result="hardAlpha"/>
<feOffset dy="20"/>
<feGaussianBlur stdDeviation="10"/>
<feComposite in2="hardAlpha" operator="arithmetic" k2="-1" k3="1"/>
<feColorMatrix type="matrix" values="0 0 0 0 1 0 0 0 0 1 0 0 0 0 1 0 0 0 0.25 0"/>
<feBlend mode="overlay" in2="effect4_innerShadow_342_61" result="effect5_innerShadow_342_61"/>
</filter>
<filter id="filter6_iiiii_342_61" x="131.398" y="11.7363" width="19.5352" height="97.2637" filterUnits="userSpaceOnUse" color-interpolation-filters="sRGB">
<feFlood flood-opacity="0" result="BackgroundImageFix"/>
<feBlend mode="normal" in="SourceGraphic" in2="BackgroundImageFix" result="shape"/>
<feColorMatrix in="SourceAlpha" type="matrix" values="0 0 0 0 0 0 0 0 0 0 0 0 0 0 0 0 0 0 127 0" result="hardAlpha"/>
<feOffset dy="54"/>
<feGaussianBlur stdDeviation="20"/>
<feComposite in2="hardAlpha" operator="arithmetic" k2="-1" k3="1"/>
<feColorMatrix type="matrix" values="0 0 0 0 1 0 0 0 0 1 0 0 0 0 1 0 0 0 0.5 0"/>
<feBlend mode="overlay" in2="shape" result="effect1_innerShadow_342_61"/>
<feColorMatrix in="SourceAlpha" type="matrix" values="0 0 0 0 0 0 0 0 0 0 0 0 0 0 0 0 0 0 127 0" result="hardAlpha"/>
<feOffset dy="-30"/>
<feGaussianBlur stdDeviation="30"/>
<feComposite in2="hardAlpha" operator="arithmetic" k2="-1" k3="1"/>
<feColorMatrix type="matrix" values="0 0 0 0 0 0 0 0 0 0 0 0 0 0 0 0 0 0 0.5 0"/>
<feBlend mode="overlay" in2="effect1_innerShadow_342_61" result="effect2_innerShadow_342_61"/>
<feColorMatrix in="SourceAlpha" type="matrix" values="0 0 0 0 0 0 0 0 0 0 0 0 0 0 0 0 0 0 127 0" result="hardAlpha"/>
<feOffset dy="5"/>
<feGaussianBlur stdDeviation="5"/>
<feComposite in2="hardAlpha" operator="arithmetic" k2="-1" k3="1"/>
<feColorMatrix type="matrix" values="0 0 0 0 1 0 0 0 0 1 0 0 0 0 1 0 0 0 0.5 0"/>
<feBlend mode="overlay" in2="effect2_innerShadow_342_61" result="effect3_innerShadow_342_61"/>
<feColorMatrix in="SourceAlpha" type="matrix" values="0 0 0 0 0 0 0 0 0 0 0 0 0 0 0 0 0 0 127 0" result="hardAlpha"/>
<feOffset dy="-134"/>
<feGaussianBlur stdDeviation="15.5"/>
<feComposite in2="hardAlpha" operator="arithmetic" k2="-1" k3="1"/>
<feColorMatrix type="matrix" values="0 0 0 0 0 0 0 0 0 0 0 0 0 0 0 0 0 0 0.15 0"/>
<feBlend mode="overlay" in2="effect3_innerShadow_342_61" result="effect4_innerShadow_342_61"/>
<feColorMatrix in="SourceAlpha" type="matrix" values="0 0 0 0 0 0 0 0 0 0 0 0 0 0 0 0 0 0 127 0" result="hardAlpha"/>
<feOffset dy="20"/>
<feGaussianBlur stdDeviation="10"/>
<feComposite in2="hardAlpha" operator="arithmetic" k2="-1" k3="1"/>
<feColorMatrix type="matrix" values="0 0 0 0 1 0 0 0 0 1 0 0 0 0 1 0 0 0 0.25 0"/>
<feBlend mode="overlay" in2="effect4_innerShadow_342_61" result="effect5_innerShadow_342_61"/>
</filter>
</defs>
</svg>
